<svg xmlns="http://www.w3.org/2000/svg" width="129" height="80.873" viewBox="0 0 129 80.873">
  <path id="Icon_awesome-behance" data-name="Icon awesome-behance" d="M51.958,41.538c7.122-3.4,10.84-8.555,10.84-16.573C62.8,9.154,51.018,5.3,37.423,5.3H0V84.672H38.476c14.423,0,27.972-6.92,27.972-23.045C66.448,51.661,61.722,44.293,51.958,41.538ZM17.446,18.851H33.818c6.293,0,11.959,1.769,11.959,9.07,0,6.741-4.412,9.451-10.638,9.451H17.446ZM36.1,71.19H17.446V49.332H36.46c7.682,0,12.542,3.2,12.542,11.332,0,8.018-5.8,10.526-12.9,10.526Zm80.289-53.907H84.208V9.467h32.183v7.816ZM129,56.767c0-17-9.944-31.175-27.972-31.175-17.514,0-29.406,13.169-29.406,30.414,0,17.894,11.265,30.167,29.406,30.167,13.729,0,22.62-6.181,26.9-19.328H114c-1.5,4.9-7.682,7.5-12.474,7.5-9.249,0-14.109-5.42-14.109-14.624H128.87C128.933,58.783,129,57.775,129,56.767ZM87.433,49.78c.515-7.547,5.532-12.273,13.1-12.273,7.928,0,11.915,4.658,12.586,12.273Z" transform="translate(0 -5.3)" fill="#f7f7f7"/>
</svg>
