<svg xmlns="http://www.w3.org/2000/svg" width="129" height="129" viewBox="0 0 129 129">
  <path id="Icon_awesome-dribbble" data-name="Icon awesome-dribbble" d="M65.063.562a64.5,64.5,0,1,0,64.5,64.5,64.5,64.5,0,0,0-64.5-64.5Zm42.645,29.744a54.831,54.831,0,0,1,12.441,34.319c-1.816-.384-20.031-4.079-38.362-1.773-1.5-3.652-2.908-6.864-4.842-10.823,20.369-8.316,29.6-20.151,30.763-21.722Zm-6.125-6.371c-.991,1.411-9.284,12.558-28.874,19.9a294.076,294.076,0,0,0-20.557-32.25,54.951,54.951,0,0,1,49.431,12.351ZM41.64,15.288A351.538,351.538,0,0,1,62.066,47.15a205.5,205.5,0,0,1-50.933,6.712A55.3,55.3,0,0,1,41.64,15.288ZM9.97,65.147c0-.563.011-1.124.028-1.684,2.41.049,29.108.394,56.621-7.84,1.577,3.087,3.084,6.22,4.467,9.35-19.922,5.61-38.023,21.727-46.953,37.01A54.872,54.872,0,0,1,9.97,65.147ZM31.246,108.61C37,96.845,52.619,81.659,74.83,74.082a229.008,229.008,0,0,1,11.753,41.779,54.981,54.981,0,0,1-55.337-7.252Zm64.6,2.208a237.783,237.783,0,0,0-10.7-39.281,80.864,80.864,0,0,1,34.317,2.355,55.189,55.189,0,0,1-23.614,36.926Z" transform="translate(-0.563 -0.562)" fill="#f7f7f7"/>
</svg>
