<svg xmlns="http://www.w3.org/2000/svg" width="144" height="144" viewBox="0 0 144 144">
  <g id="Group_3" data-name="Group 3" transform="translate(6137.464 -4778.536)">
    <rect id="Rectangle_3" data-name="Rectangle 3" width="144" height="144" transform="translate(-6137.464 4778.536)" fill="none"/>
    <g id="Group_2" data-name="Group 2" transform="translate(-6111.815 4786.876)">
      <path id="Subtraction_1" data-name="Subtraction 1" d="M42.2,126.013h0l-12.5-3.947L17.515,111.695l-3.239-3.254L11.358,95.116l-2.313-.9L6.6,89.557,4.239,83.175l.6-12.915,1.894-.594L6.6,57.692l-1.04-1.078V55.59L4,56.077,3.123,45.926.683,48.513l1.27-6.735L0,44.9l1.659-4.441H.683l.488-4.588L6.1,27.917l2.783-4.051,4.2-3.758-1.709.684,3.71-4.345L9.908,21.475l5.71-8.1,7.858-7.856L36.116,0,55.2.537,66.962,5.808,75.6,8.053l8.736,10.493,4.051,15.227c-.088.214-2.135,5.171-3.324,6.348l3.4-2.729-1.977,4.093,1.783-.775-1.588,2.141,3.637.787L86.045,45.1l2.045,5.674L85.654,48.66l-1.123,8.346-2.879,9.565-1.67,5.183,2.323-.222.177,12.316L80.92,90.924l-2.312,4.991-3.514,1.415-2.52,11.408a16.781,16.781,0,0,1-2.408,2.956L57.179,122.066,42.2,126.013ZM34.743,28.865,18.82,36.949,15.5,42.3l.429,9.479-3.538,5.313-.347,8.8-.017,12.04L14.115,90.7l11.938,11.719,2.706,8.944,8.685,5.51,12.5-.066,8.843-4.919,1.677-8.867,12.9-12.807,2.473-11.166.415-8.179L76.893,59.7,72.712,51.78,74.273,42.3l-3.68-5.352-18.12-8.084-7.025,1.059a.648.648,0,0,1,.076-.038,34.609,34.609,0,0,1,3.714-1.578l-7.582,1.226-6.914-.669Z" transform="matrix(1, -0.017, 0.017, 1, 0, 1.576)" fill="#444"/>
      <path id="Path_51" data-name="Path 51" d="M19.347,2.62,16.726,0H4.238L0,2.62" transform="matrix(1, -0.017, 0.017, 1, 19.204, 56.687)" fill="none" stroke="#444" stroke-linecap="round" stroke-linejoin="round" stroke-width="1"/>
      <path id="Path_52" data-name="Path 52" d="M0,2.62,2.62,0H15.109l4.237,2.62" transform="matrix(1, -0.017, 0.017, 1, 50.915, 56.133)" fill="none" stroke="#444" stroke-linecap="round" stroke-linejoin="round" stroke-width="1"/>
      <path id="Path_53" data-name="Path 53" d="M14.719,3.668l1.451-.854A11.678,11.678,0,0,0,12.661.764,11.938,11.938,0,0,0,6.472.154,17.207,17.207,0,0,0,2.23,1.313C.255,2.128,0,3.2,0,3.2" transform="matrix(1, -0.017, 0.017, 1, 20.296, 64.875)" fill="none" stroke="#444" stroke-linecap="round" stroke-linejoin="round" stroke-width="1"/>
      <path id="Path_54" data-name="Path 54" d="M1.45,2.838,0,2.057A18.643,18.643,0,0,1,3.47.643,13.546,13.546,0,0,1,9.585.161a15.982,15.982,0,0,1,3.69,1.07,4.426,4.426,0,0,1,2.183,1.606" transform="matrix(1, -0.017, 0.017, 1, 54.208, 64.806)" fill="none" stroke="#444" stroke-linecap="round" stroke-linejoin="round" stroke-width="1"/>
      <path id="Path_55" data-name="Path 55" d="M2.115.214,5.549.507l.2.654c-.17.96-.87,3.335-3.331,2.862A2.787,2.787,0,0,1,0,.843L.271,0" transform="matrix(1, -0.017, 0.017, 1, 25.804, 65.118)" fill="#444" stroke="#444" stroke-linejoin="round" stroke-width="1"/>
      <path id="Path_66" data-name="Path 66" d="M2.538.039l3.344.5-.011.607c-.174.946-.888,3.288-3.4,2.821A2.76,2.76,0,0,1,0,.831L.277,0" transform="matrix(1, -0.017, 0.017, 1, 59.286, 65.18)" fill="#444" stroke="#444" stroke-linejoin="round" stroke-width="1"/>
      <path id="Path_58" data-name="Path 58" d="M0,.631S7.057-.022,7.226,0h8.151l4.836.63" transform="matrix(1, -0.017, 0.017, 1, 34.455, 99.564)" fill="none" stroke="#444" stroke-linecap="round" stroke-linejoin="round" stroke-width="1"/>
      <path id="Path_59" data-name="Path 59" d="M0,10.236.836,5.162,11.574,0,17.51.581,22.971.2l9.367,4.963.751,5.651-1.2-.884L23.574,4.874S17.3,4.415,11.263,4.659L1.506,9.4Z" transform="matrix(1, -0.017, 0.017, 1, 27.425, 91.252)" fill="#444"/>
      <path id="Path_63" data-name="Path 63" d="M-5950.976,4760.747l-8.56,15.692.375,11.9,5.031,25.417,3.229,13.441,3.229,3,12.2,10.136,12.614,3.867h4.649l10.482-4.356,13.064-10.886,1.99-2.553,2.289-11.488,4.454-25.78,4.407-14.353.826-8.86-11.414-6.194-1.382,9.717,4.236,7.815-.639,19.222-2.293,11.283-12.725,13.072-1.493,8.8-8.767,5.11h-12.723l-8.553-5.11-2.777-8.8-12.2-11.552-2.364-12.916v-20.647l3.453-5.294Z" transform="translate(5967.121 -4717.265)" fill="#444"/>
    </g>
    <path id="Path_65" data-name="Path 65" d="M-6023.7,4943.065l3.055.393,2.256,2.255,1.819.8,1.893-.8,2.2-2.255,2.934-.393" transform="translate(-50.299 -71.583)" fill="none" stroke="#444" stroke-linecap="round" stroke-linejoin="round" stroke-width="1"/>
  </g>
</svg>
